<svg xmlns="http://www.w3.org/2000/svg" xmlns:xlink="http://www.w3.org/1999/xlink" width="1920" zoomAndPan="magnify" viewBox="0 0 1440 809.999993" height="1080" preserveAspectRatio="xMidYMid meet" version="1.0"><defs><g/></defs><g fill="#ffffff" fill-opacity="1"><g transform="translate(36.089038, 539.840647)"><g><path d="M -2.265625 51.890625 C 8.835938 48.609375 18.804688 42.738281 27.640625 34.28125 C 36.484375 25.820312 42.925781 15.40625 46.96875 3.03125 C 50.25 -6.5625 52.394531 -17.734375 53.40625 -30.484375 C 54.414062 -43.242188 54.921875 -62.878906 54.921875 -89.390625 L 54.921875 -257.578125 L 18.5625 -262.5 L 18.5625 -281.453125 L 129.921875 -281.453125 L 129.921875 -262.5 L 95.453125 -257.578125 L 95.453125 -86.359375 C 95.453125 -66.410156 95.195312 -50.375 94.6875 -38.25 C 94.1875 -26.132812 93.054688 -15.785156 91.296875 -7.203125 C 86.742188 13.003906 76.765625 29.671875 61.359375 42.796875 C 45.960938 55.929688 28.160156 64.265625 7.953125 67.796875 Z M -2.265625 51.890625 "/></g></g></g><g fill="#ffffff" fill-opacity="1"><g transform="translate(180.40967, 539.840647)"><g><path d="M 17.046875 -105.6875 C 17.046875 -128.414062 21.71875 -148.113281 31.0625 -164.78125 C 40.40625 -181.445312 52.710938 -194.132812 67.984375 -202.84375 C 83.265625 -211.5625 99.617188 -215.921875 117.046875 -215.921875 C 148.867188 -215.921875 172.796875 -205.816406 188.828125 -185.609375 C 204.867188 -165.410156 212.890625 -138.894531 212.890625 -106.0625 C 212.890625 -83.082031 208.21875 -63.257812 198.875 -46.59375 C 189.53125 -29.925781 177.21875 -17.296875 161.9375 -8.703125 C 146.65625 -0.117188 130.300781 4.171875 112.875 4.171875 C 81.0625 4.171875 57.132812 -5.925781 41.09375 -26.125 C 25.0625 -46.332031 17.046875 -72.851562 17.046875 -105.6875 Z M 115.15625 -17.421875 C 132.582031 -17.421875 145.96875 -24.617188 155.3125 -39.015625 C 164.65625 -53.410156 169.328125 -74.75 169.328125 -103.03125 C 169.328125 -131.0625 165.03125 -153.285156 156.4375 -169.703125 C 147.851562 -186.117188 134.09375 -194.328125 115.15625 -194.328125 C 97.726562 -194.328125 84.28125 -187.128906 74.8125 -172.734375 C 65.34375 -158.335938 60.609375 -137 60.609375 -108.71875 C 60.609375 -80.6875 65.023438 -58.460938 73.859375 -42.046875 C 82.703125 -25.628906 96.46875 -17.421875 115.15625 -17.421875 Z M 115.15625 -17.421875 "/></g></g></g><g fill="#ffffff" fill-opacity="1"><g transform="translate(410.716674, 539.840647)"><g><path d="M 52.28125 -30.296875 C 54.800781 -26.515625 60.164062 -23.109375 68.375 -20.078125 C 76.582031 -17.046875 85.234375 -15.53125 94.328125 -15.53125 C 108.710938 -15.53125 119.3125 -18.304688 126.125 -23.859375 C 132.945312 -29.421875 136.359375 -37.125 136.359375 -46.96875 C 136.359375 -53.789062 134.210938 -59.722656 129.921875 -64.765625 C 125.628906 -69.816406 119.628906 -74.300781 111.921875 -78.21875 C 104.222656 -82.132812 93.179688 -86.867188 78.796875 -92.421875 C 59.347656 -99.742188 45.140625 -108.519531 36.171875 -118.75 C 27.210938 -128.976562 22.734375 -142.425781 22.734375 -159.09375 C 22.734375 -170.207031 26.078125 -179.929688 32.765625 -188.265625 C 39.453125 -196.597656 48.664062 -203.097656 60.40625 -207.765625 C 72.15625 -212.441406 85.226562 -214.78125 99.625 -214.78125 C 111.238281 -214.78125 121.398438 -213.894531 130.109375 -212.125 C 138.828125 -210.351562 145.835938 -208.582031 151.140625 -206.8125 C 156.441406 -205.050781 159.976562 -203.914062 161.75 -203.40625 L 161.75 -156.4375 L 138.640625 -156.4375 L 131.0625 -184.46875 C 129.550781 -187.5 125.507812 -190.085938 118.9375 -192.234375 C 112.375 -194.378906 105.050781 -195.453125 96.96875 -195.453125 C 85.601562 -195.453125 76.445312 -192.925781 69.5 -187.875 C 62.5625 -182.832031 59.09375 -176.015625 59.09375 -167.421875 C 59.09375 -159.847656 60.921875 -153.597656 64.578125 -148.671875 C 68.242188 -143.753906 72.851562 -139.78125 78.40625 -136.75 C 83.96875 -133.71875 91.546875 -130.179688 101.140625 -126.140625 L 108.71875 -123.109375 C 122.851562 -117.554688 134.335938 -112.253906 143.171875 -107.203125 C 152.015625 -102.148438 159.40625 -95.519531 165.34375 -87.3125 C 171.28125 -79.101562 174.25 -69.066406 174.25 -57.203125 C 174.25 -38.515625 166.988281 -23.613281 152.46875 -12.5 C 137.945312 -1.382812 118.0625 4.171875 92.8125 4.171875 C 80.4375 4.171875 67.492188 2.46875 53.984375 -0.9375 C 40.472656 -4.351562 29.421875 -7.828125 20.828125 -11.359375 L 20.828125 -59.84375 L 45.453125 -59.84375 Z M 52.28125 -30.296875 "/></g></g></g><g fill="#ffffff" fill-opacity="1"><g transform="translate(602.007817, 539.840647)"><g><path d="M 37.5 -282.578125 L 5.6875 -286.75 L 5.6875 -303.03125 L 67.421875 -310.234375 L 68.1875 -310.234375 L 76.515625 -304.546875 L 76.515625 -216.671875 L 75 -184.46875 C 83.082031 -191.789062 94.191406 -198.734375 108.328125 -205.296875 C 122.472656 -211.867188 136.742188 -215.15625 151.140625 -215.15625 C 167.046875 -215.15625 179.414062 -212.125 188.25 -206.0625 C 197.09375 -200 203.28125 -190.71875 206.8125 -178.21875 C 210.351562 -165.71875 212.125 -148.863281 212.125 -127.65625 L 212.125 -21.96875 L 238.640625 -18.5625 L 238.640625 0 L 148.109375 0 L 148.109375 -18.5625 L 172.734375 -21.96875 L 172.734375 -128.03125 C 172.734375 -142.925781 171.722656 -154.601562 169.703125 -163.0625 C 167.679688 -171.53125 163.890625 -177.847656 158.328125 -182.015625 C 152.773438 -186.179688 144.445312 -188.265625 133.34375 -188.265625 C 124.25 -188.265625 114.523438 -185.988281 104.171875 -181.4375 C 93.816406 -176.894531 84.722656 -171.59375 76.890625 -165.53125 L 76.890625 -21.96875 L 103.03125 -18.5625 L 103.03125 0 L 14.765625 0 L 14.765625 -18.5625 L 37.5 -21.59375 Z M 37.5 -282.578125 "/></g></g></g><g fill="#ffffff" fill-opacity="1"><g transform="translate(851.633342, 539.840647)"><g><path d="M 189.390625 3.40625 C 182.328125 3.40625 177.085938 2.019531 173.671875 -0.75 C 170.265625 -3.53125 168.5625 -8.078125 168.5625 -14.390625 L 168.5625 -27.265625 C 160.226562 -18.929688 149.8125 -11.609375 137.3125 -5.296875 C 124.8125 1.015625 112.25 4.171875 99.625 4.171875 C 76.132812 4.171875 59.460938 -2.140625 49.609375 -14.765625 C 39.765625 -27.398438 34.84375 -48.238281 34.84375 -77.28125 L 34.84375 -187.125 L 13.640625 -193.1875 L 13.640625 -209.859375 L 66.671875 -214.78125 L 67.046875 -214.78125 L 74.25 -210.234375 L 74.25 -80.3125 C 74.25 -65.65625 75.320312 -54.222656 77.46875 -46.015625 C 79.613281 -37.816406 83.398438 -31.757812 88.828125 -27.84375 C 94.253906 -23.925781 102.144531 -21.96875 112.5 -21.96875 C 122.601562 -21.96875 132.070312 -24.113281 140.90625 -28.40625 C 149.75 -32.695312 157.453125 -37.75 164.015625 -43.5625 L 164.015625 -187.125 L 136.75 -193.1875 L 136.75 -209.859375 L 194.328125 -214.78125 L 194.703125 -214.78125 L 203.40625 -210.234375 L 203.40625 -19.3125 L 226.140625 -19.3125 L 225.765625 -2.265625 C 218.691406 -0.503906 212.566406 0.878906 207.390625 1.890625 C 202.210938 2.898438 196.210938 3.40625 189.390625 3.40625 Z M 189.390625 3.40625 "/></g></g></g><g fill="#ffffff" fill-opacity="1"><g transform="translate(1091.031372, 539.840647)"><g><path d="M 17.046875 -56.8125 C 17.046875 -80.550781 28.914062 -98.039062 52.65625 -109.28125 C 76.394531 -120.519531 106.445312 -126.519531 142.8125 -127.28125 L 142.8125 -137.875 C 142.8125 -149.75 141.546875 -159.09375 139.015625 -165.90625 C 136.492188 -172.726562 132.140625 -177.71875 125.953125 -180.875 C 119.765625 -184.03125 110.988281 -185.609375 99.625 -185.609375 C 86.75 -185.609375 75.195312 -183.773438 64.96875 -180.109375 C 54.738281 -176.453125 44.570312 -171.972656 34.46875 -166.671875 L 25 -186.375 C 28.28125 -189.144531 34.335938 -192.800781 43.171875 -197.34375 C 52.015625 -201.894531 62.242188 -205.9375 73.859375 -209.46875 C 85.484375 -213.007812 97.101562 -214.78125 108.71875 -214.78125 C 126.644531 -214.78125 140.847656 -212.316406 151.328125 -207.390625 C 161.804688 -202.460938 169.316406 -194.566406 173.859375 -183.703125 C 178.410156 -172.847656 180.6875 -158.332031 180.6875 -140.15625 L 180.6875 -18.5625 L 203.03125 -18.5625 L 203.03125 -1.890625 C 197.976562 -0.628906 191.601562 0.628906 183.90625 1.890625 C 176.207031 3.148438 169.453125 3.78125 163.640625 3.78125 C 156.566406 3.78125 151.765625 2.707031 149.234375 0.5625 C 146.710938 -1.582031 145.453125 -6.316406 145.453125 -13.640625 L 145.453125 -26.140625 C 137.878906 -18.554688 128.597656 -11.609375 117.609375 -5.296875 C 106.628906 1.015625 94.195312 4.171875 80.3125 4.171875 C 62.125 4.171875 47.03125 -1.066406 35.03125 -11.546875 C 23.039062 -22.023438 17.046875 -37.113281 17.046875 -56.8125 Z M 96.59375 -21.59375 C 103.15625 -21.59375 110.726562 -23.613281 119.3125 -27.65625 C 127.90625 -31.695312 135.738281 -36.492188 142.8125 -42.046875 L 142.8125 -107.203125 C 115.28125 -107.203125 94.503906 -102.96875 80.484375 -94.5 C 66.472656 -86.039062 59.46875 -74.992188 59.46875 -61.359375 C 59.46875 -47.722656 62.8125 -37.6875 69.5 -31.25 C 76.195312 -24.8125 85.226562 -21.59375 96.59375 -21.59375 Z M 96.59375 -21.59375 "/></g></g></g><g fill="#ffffff" fill-opacity="1"><g transform="translate(1303.535056, 539.840647)"><g><path d="M 48.109375 3.78125 C 41.546875 3.78125 35.863281 1.507812 31.0625 -3.03125 C 26.257812 -7.570312 23.859375 -13.378906 23.859375 -20.453125 C 23.859375 -28.285156 26.695312 -34.851562 32.375 -40.15625 C 38.0625 -45.457031 44.695312 -48.109375 52.28125 -48.109375 C 60.101562 -48.109375 66.097656 -45.769531 70.265625 -41.09375 C 74.429688 -36.425781 76.515625 -30.679688 76.515625 -23.859375 C 76.515625 -15.523438 73.734375 -8.832031 68.171875 -3.78125 C 62.617188 1.257812 55.929688 3.78125 48.109375 3.78125 Z M 48.109375 3.78125 "/></g></g></g></svg>